<svg t="1611750963197" class="icon" viewBox="0 0 1024 1024" version="1.1" xmlns="http://www.w3.org/2000/svg" p-id="2010" width="200" height="200"><path d="M102.222222 817.777778c56.462222 0 102.222222 45.767111 102.222222 102.222222 0 56.462222-45.767111 102.222222-102.222222 102.222222C45.76 1022.222222 0 976.455111 0 920 0 863.537778 45.767111 817.777778 102.222222 817.777778z m408.888889 0c56.462222 0 102.222222 45.767111 102.222222 102.222222 0 56.462222-45.767111 102.222222-102.222222 102.222222-56.462222 0-102.222222-45.767111-102.222222-102.222222 0-56.462222 45.767111-102.222222 102.222222-102.222222z m408.888889 0c56.462222 0 102.222222 45.767111 102.222222 102.222222 0 56.462222-45.767111 102.222222-102.222222 102.222222-56.462222 0-102.222222-45.767111-102.222222-102.222222 0-56.462222 45.767111-102.222222 102.222222-102.222222z m-817.777778-408.888889c56.462222 0 102.222222 45.767111 102.222222 102.222222 0 56.462222-45.767111 102.222222-102.222222 102.222222C45.76 613.333333 0 567.566222 0 511.111111 0 454.648889 45.767111 408.888889 102.222222 408.888889z m408.888889 0c56.462222 0 102.222222 45.767111 102.222222 102.222222 0 56.462222-45.767111 102.222222-102.222222 102.222222-56.462222 0-102.222222-45.767111-102.222222-102.222222 0-56.462222 45.767111-102.222222 102.222222-102.222222z m408.888889 0c56.462222 0 102.222222 45.767111 102.222222 102.222222 0 56.462222-45.767111 102.222222-102.222222 102.222222-56.462222 0-102.222222-45.767111-102.222222-102.222222 0-56.462222 45.767111-102.222222 102.222222-102.222222zM102.222222 0c56.462222 0 102.222222 45.767111 102.222222 102.222222 0 56.462222-45.767111 102.222222-102.222222 102.222222C45.76 204.444444 0 158.677333 0 102.222222 0 45.76 45.767111 0 102.222222 0z m408.888889 0c56.462222 0 102.222222 45.767111 102.222222 102.222222 0 56.462222-45.767111 102.222222-102.222222 102.222222-56.462222 0-102.222222-45.767111-102.222222-102.222222C408.888889 45.76 454.656 0 511.111111 0z m408.888889 0c56.462222 0 102.222222 45.767111 102.222222 102.222222 0 56.462222-45.767111 102.222222-102.222222 102.222222-56.462222 0-102.222222-45.767111-102.222222-102.222222C817.777778 45.76 863.544889 0 920 0z" p-id="2011" fill="#ffffff"></path></svg>